<?xml version="1.0" encoding="utf-8"?>
<!-- Generator: Adobe Illustrator 19.0.0, SVG Export Plug-In . SVG Version: 6.00 Build 0)  -->
<svg version="1.1" id="Capa_1" xmlns="http://www.w3.org/2000/svg" xmlns:xlink="http://www.w3.org/1999/xlink" x="0px" y="0px"
	 viewBox="462.4 306.5 124 124" style="enable-background:new 462.4 306.5 124 124;" xml:space="preserve">
<style type="text/css">
	.st0{fill:#fafafa;}
</style>
<g>
	<path class="st0" d="M574.4,322.5h-100c-6.6,0-12,5.4-12,12s5.4,12,12,12h100c6.6,0,12-5.4,12-12S581,322.5,574.4,322.5z"/>
	<path class="st0" d="M574.4,356.5h-100c-6.6,0-12,5.4-12,12s5.4,12,12,12h100c6.6,0,12-5.4,12-12S581,356.5,574.4,356.5z"/>
	<path class="st0" d="M574.4,390.5h-100c-6.6,0-12,5.4-12,12s5.4,12,12,12h100c6.6,0,12-5.4,12-12S581,390.5,574.4,390.5z"/>
</g>
</svg>
